<svg width="89" height="72" viewBox="0 0 89 72" fill="none" xmlns="http://www.w3.org/2000/svg">
<path d="M58.945 22.8355C58.4629 22.0541 57.945 21.2946 57.3931 20.5597C57.0814 20.1447 56.7589 19.7376 56.4258 19.3388C55.9549 18.7749 55.4629 18.2276 54.9505 17.6984C54.2376 16.962 53.4854 16.2604 52.6961 15.5972C49.3097 12.7522 45.2396 10.6145 40.659 9.47244C24.5698 5.46094 8.27496 15.2519 4.26346 31.3411C0.251968 47.4303 10.0429 63.7252 26.1321 67.7367C41.0053 71.445 56.0542 63.3584 61.413 49.405C61.8511 48.2641 62.2245 47.0841 62.5277 45.868C62.6949 45.1974 62.8381 44.5264 62.9579 43.8559C63.1544 42.7562 63.2879 41.658 63.3606 40.5653C63.4075 39.8617 63.4292 39.1603 63.4264 38.4623C63.4229 37.5986 63.382 36.7401 63.3047 35.8887" stroke="#004447" stroke-width="6"/>
<path d="M25.5811 26.866C25.5811 26.866 27.953 44.7384 38.2314 45.5155C48.5098 46.2926 87.2513 2 87.2513 2" stroke="#8BE76A" stroke-width="4"/>
</svg>
